<svg xmlns="http://www.w3.org/2000/svg" xmlns:xlink="http://www.w3.org/1999/xlink" width="175.478" height="43.765" viewBox="0 0 175.478 43.765">
    <defs>
        <clipPath id="clip-path">
            <rect id="Rectángulo_4893" data-name="Rectángulo 4893" width="175.478" height="43.765" fill="none"/>
        </clipPath>
    </defs>
    <g id="Grupo_35209" data-name="Grupo 35209" transform="translate(0 0)">
        <g id="Grupo_35208" data-name="Grupo 35208" transform="translate(0 0)" clip-path="url(#clip-path)">
            <path id="Trazado_16412" data-name="Trazado 16412" d="M280.979,43.394q-5.5,0-11.008,0c-1.414,0-1.517.135-1.045,1.4,2.176,5.843,7.727,8.674,13.616,6.744a12.23,12.23,0,0,0,3.794-2.458c1.789-1.509,3.6-1.2,4.489.927a2.352,2.352,0,0,1-.644,2.714,14.078,14.078,0,0,1-8.428,4.207,16.958,16.958,0,0,1-11.243-2.122c-8.046-4.72-10.309-16.056-4.6-23.4,4.338-5.587,10.115-7.668,16.947-6.133a15.2,15.2,0,0,1,11.152,9.63,22.037,22.037,0,0,1,1.171,5.53c.234,1.954-.706,2.9-2.734,2.953-2.483.062-4.968.021-7.453.023q-2.007,0-4.013,0ZM279.14,38.93c3.211,0,6.423-.009,9.634.006.72,0,1.236-.053.95-1.007a11.013,11.013,0,0,0-14.094-7.5,10.719,10.719,0,0,0-6.972,7.206c-.352,1.026-.115,1.293.963,1.293q4.76,0,9.519,0" transform="translate(-142.041 -13.397)" fill="#fff"/>
            <path id="Trazado_16413" data-name="Trazado 16413" d="M146.2,52.854c-1.181.812-2.095,1.476-3.044,2.086-6.615,4.258-16.08,2.344-20.88-4.154A16.169,16.169,0,1,1,150.627,36.2a22.462,22.462,0,0,1,.826,5.5c.123,4.077.049,8.16.038,12.241a2.793,2.793,0,0,1-1.548,2.606,2.008,2.008,0,0,1-2.459-.132,5.651,5.651,0,0,1-1.154-1.962,5.86,5.86,0,0,1-.128-1.6m-10.946-.893a10.881,10.881,0,0,0,10.968-10.99,10.741,10.741,0,0,0-11.112-10.86,10.925,10.925,0,0,0,.144,21.85" transform="translate(-64.324 -13.448)" fill="#fff"/>
            <path id="Trazado_16414" data-name="Trazado 16414" d="M12.593,23.75c0-5.682-.022-11.364.02-17.046.008-1.077-.3-1.489-1.427-1.459-2.751.074-5.5.039-8.257.043A2.653,2.653,0,0,1,0,2.741,2.72,2.72,0,0,1,2.94.069Q15.212.063,27.484.061a2.71,2.71,0,0,1,3,2.616c.011,1.526-1.227,2.6-3.009,2.6q-4.129,0-8.258,0c-1.428,0-1.477.055-1.476,1.48q.006,16.7.011,33.407a2.891,2.891,0,0,1-1.419,2.9A2.476,2.476,0,0,1,12.586,40.8c-.015-5.682-.005-11.365-.005-17.047h.012" transform="translate(0 -0.033)" fill="#fff"/>
            <path id="Trazado_16415" data-name="Trazado 16415" d="M209.148,48.066c.718-1.633,1.31-2.973,1.9-4.315q3.742-8.577,7.487-17.154A2.639,2.639,0,0,1,221.97,25a2.758,2.758,0,0,1,1.4,3.734Q217.543,41.8,211.682,54.852a2.687,2.687,0,0,1-5.171,0q-5.746-12.807-11.477-25.621a4.392,4.392,0,0,1-.429-2.282,2.466,2.466,0,0,1,2.355-2.128,2.618,2.618,0,0,1,2.6,1.7c1.545,3.474,3.055,6.964,4.583,10.445q2.2,5.014,4.414,10.024c.117.265.279.511.589,1.071" transform="translate(-105.193 -13.411)" fill="#fff"/>
            <path id="Trazado_16416" data-name="Trazado 16416" d="M76.249,29.326c1.262-.866,2.32-1.651,3.435-2.344a15.645,15.645,0,0,1,8.535-2.191,2.555,2.555,0,0,1,2.6,2.625,2.482,2.482,0,0,1-2.555,2.517c-6.971.04-11.941,5.389-12.047,12.324-.058,3.85-.045,7.7-.061,11.551-.008,1.939-.874,2.966-2.517,2.98A2.753,2.753,0,0,1,70.991,53.8q-.048-11.266-.054-22.531c0-1.3-.014-2.595.055-3.888A2.621,2.621,0,0,1,73.1,24.846a2.248,2.248,0,0,1,2.671,1.05,6.28,6.28,0,0,1,.384,2.078c.055.391.055.789.09,1.351" transform="translate(-38.349 -13.386)" fill="#fff"/>
            <path id="Trazado_16417" data-name="Trazado 16417" d="M343.634,21.777q0,9.322,0,18.643a2.659,2.659,0,1,1-5.278.051q-.018-18.872-.011-37.744A2.627,2.627,0,0,1,340.973,0a2.579,2.579,0,0,1,2.664,2.79q.012,9.493,0,18.986h-.006" transform="translate(-182.915 0)" fill="#fff"/>
            <path id="Trazado_16418" data-name="Trazado 16418" d="M360.164,29.876a4.886,4.886,0,0,1,4.9-4.984,5.132,5.132,0,0,1,5.122,5.1,5.2,5.2,0,0,1-5.125,4.989,4.944,4.944,0,0,1-4.9-5.106" transform="translate(-194.708 -13.456)" fill="#fff"/>
            <path id="Trazado_16419" data-name="Trazado 16419" d="M360.171,54.2a4.779,4.779,0,0,1,4.879-4.978,4.923,4.923,0,0,1,5.118,5.049,5,5,0,0,1-5.075,4.942,4.786,4.786,0,0,1-4.922-5.013" transform="translate(-194.716 -26.611)" fill="#fff"/>
            <path id="Trazado_16420" data-name="Trazado 16420" d="M360.164,78.458a4.973,4.973,0,0,1,5.131-4.991,5.184,5.184,0,0,1,4.891,5.2,5.1,5.1,0,0,1-5.221,4.815,4.819,4.819,0,0,1-4.8-5.023" transform="translate(-194.712 -39.717)" fill="#fff"/>
        </g>
    </g>
</svg>
