<svg id="Grupo_35292" data-name="Grupo 35292" xmlns="http://www.w3.org/2000/svg" xmlns:xlink="http://www.w3.org/1999/xlink" width="144.714" height="63.01" viewBox="0 0 144.714 63.01">
    <defs>
        <clipPath id="clip-path">
            <rect id="Rectángulo_4941" data-name="Rectángulo 4941" width="144.714" height="63.01" fill="none"/>
        </clipPath>
    </defs>
    <g id="Grupo_35291" data-name="Grupo 35291" transform="translate(0 0)" clip-path="url(#clip-path)">
        <path id="Trazado_16649" data-name="Trazado 16649" d="M9.073,71.171a4.055,4.055,0,0,1-1.859.622l2.875,4.8h-1.2l-2.875-4.8H1.063v4.8H0V65.225H6.695a3.584,3.584,0,0,1,2.15.457,3.435,3.435,0,0,1,.228,5.49m-.717-4.552a3.648,3.648,0,0,0-2.119-.347H1.063v4.481H6.238a3.528,3.528,0,0,0,2.2-.41,2.363,2.363,0,0,0,.866-1.89,2.056,2.056,0,0,0-.945-1.835" transform="translate(0 -13.85)" fill="#999"/>
        <path id="Trazado_16650" data-name="Trazado 16650" d="M27.11,76.607V65.25h9.365v1.071H28.126v3.938h4.56V71.3h-4.56v4.308h8.719v1.04Z" transform="translate(-5.758 -13.859)" fill="#999"/>
        <path id="Trazado_16651" data-name="Trazado 16651" d="M57.3,76.771a8.562,8.562,0,0,1-2.89-.488,6.783,6.783,0,0,1-2.686-1.874l.717-.788a6.215,6.215,0,0,0,4.954,2.024c1.528,0,4.363-.394,4.363-2.449,0-1.481-1.512-2.071-2.56-2.166-.63-.063-2.142-.047-3.009-.063-1.725,0-3.639-.717-3.639-2.741,0-1.709,1.426-2.709,2.922-3.15a7.99,7.99,0,0,1,2.15-.276,7.177,7.177,0,0,1,4.56,1.733l-.638.788a6.8,6.8,0,0,0-4.088-1.4,6.192,6.192,0,0,0-1.465.15c-1.063.244-2.363.945-2.363,2.213,0,1.4,1.5,1.693,2.607,1.725.906,0,2.253,0,3.1.087,1.906.158,3.521,1.221,3.521,3.15-.047,2.8-3.355,3.528-5.553,3.528" transform="translate(-10.985 -13.763)" fill="#999"/>
        <path id="Trazado_16652" data-name="Trazado 16652" d="M84.335,76.806a5.939,5.939,0,1,1,.1,0l-.1,0m0-10.822a4.939,4.939,0,0,0-5.117,4.753l0,.091a5.1,5.1,0,1,0,5.342-4.837c-.074,0-.148-.006-.222-.006" transform="translate(-16.688 -13.798)" fill="#999"/>
        <path id="Trazado_16653" data-name="Trazado 16653" d="M116.283,71.171a4.056,4.056,0,0,1-1.859.622l2.875,4.8h-1.205l-2.859-4.8h-4.954v4.8H107.21V65.225H113.9a3.584,3.584,0,0,1,2.15.457,3.435,3.435,0,0,1,.228,5.49m-.717-4.552a3.63,3.63,0,0,0-2.119-.347h-5.167v4.481h5.167a3.528,3.528,0,0,0,2.2-.41,2.362,2.362,0,0,0,.866-1.89,2.056,2.056,0,0,0-.945-1.835" transform="translate(-22.771 -13.85)" fill="#999"/>
        <path id="Trazado_16654" data-name="Trazado 16654" d="M138.323,66.27V76.6h-1.04V66.27H132.92V65.23h9.7v1.04Z" transform="translate(-28.232 -13.855)" fill="#999"/>
        <path id="Trazado_16655" data-name="Trazado 16655" d="M162.706,76.78a8.666,8.666,0,0,1-2.9-.488,6.822,6.822,0,0,1-2.678-1.843l.717-.788a6.215,6.215,0,0,0,4.954,2.024c1.528,0,4.355-.394,4.355-2.449,0-1.481-1.5-2.071-2.56-2.166-.622-.063-2.134-.047-3-.063-1.725,0-3.647-.717-3.647-2.741,0-1.709,1.433-2.709,2.93-3.15a7.991,7.991,0,0,1,2.15-.276,7.088,7.088,0,0,1,4.521,1.7l-.638.788a6.735,6.735,0,0,0-4.064-1.386,6.191,6.191,0,0,0-1.465.15c-1.071.244-2.363.945-2.363,2.213,0,1.4,1.5,1.693,2.607,1.725.9,0,2.253,0,3.1.087,1.9.158,3.521,1.221,3.521,3.15-.032,2.78-3.339,3.513-5.537,3.513" transform="translate(-33.374 -13.772)" fill="#999"/>
        <path id="Trazado_16656" data-name="Trazado 16656" d="M72.15,0l2.9,8.16,2.583-4.245Z" transform="translate(-15.324 0)" fill="#999"/>
        <path id="Trazado_16657" data-name="Trazado 16657" d="M66.49,9.644l.835,2.363c2.284-.11,4.615-.165,6.978-.165s4.883.063,7.262.181L82.3,9.66q-3.9-.26-8-.26c-2.662,0-5.269.087-7.813.244M32.67,18.67c8.742-3.363,20.092-5.765,32.756-6.545L64.6,9.762c-13.515,1.079-24.967,4.363-31.929,8.892m51.5-8.868-.725,2.363c12.6.788,23.9,3.15,32.6,6.529-6.86-4.521-18.32-7.8-31.874-8.884" transform="translate(-6.939 -1.996)" fill="#999"/>
        <path id="Trazado_16658" data-name="Trazado 16658" d="M97.614.03l-2.9,8.286L92.14,3.937Z" transform="translate(-19.57 -0.006)" fill="#999"/>
        <rect id="Rectángulo_4938" data-name="Rectángulo 4938" width="2.284" height="2.284" transform="translate(65.787 1.633) rotate(-45.07)" fill="#999"/>
        <rect id="Rectángulo_4939" data-name="Rectángulo 4939" width="2.284" height="2.284" transform="translate(63.52 3.924) rotate(-45.028)" fill="#999"/>
        <rect id="Rectángulo_4940" data-name="Rectángulo 4940" width="2.284" height="2.284" transform="translate(68.117 3.923) rotate(-45.028)" fill="#999"/>
        <path id="Trazado_16659" data-name="Trazado 16659" d="M11.568,41.984H3.125V50.23H.29V30.8H11.568c3.434,0,5.679,2.056,5.679,5.513a5.331,5.331,0,0,1-5.679,5.671m0-8.341H3.125v5.513h8.443c1.819,0,2.859-.89,2.859-2.764s-.977-2.757-2.859-2.757Z" transform="translate(-0.062 -6.542)" fill="#999"/>
        <path id="Trazado_16660" data-name="Trazado 16660" d="M44.007,50.215,41.219,43.8H32.5L29.61,50.215H26.53L35.359,30.73h3.15l8.664,19.485ZM36.871,34.172,33.8,40.937h6.143Z" transform="translate(-5.635 -6.527)" fill="#999"/>
        <path id="Trazado_16661" data-name="Trazado 16661" d="M60.64,50.188V30.6h2.835V47.344H75.289v2.843Z" transform="translate(-12.88 -6.499)" fill="#999"/>
        <path id="Trazado_16662" data-name="Trazado 16662" d="M103.787,50.215,101.03,43.8H92.272l-2.891,6.411H86.31L95.139,30.73h3.15l8.664,19.485ZM96.651,34.172,93.58,40.937h6.143Z" transform="translate(-18.332 -6.527)" fill="#999"/>
        <path id="Trazado_16663" data-name="Trazado 16663" d="M128.39,50.565c-5.994,0-10.94-4.009-10.94-10.239A10.022,10.022,0,0,1,127.815,30.19a13.39,13.39,0,0,1,9.38,3.985l-2.111,1.8A10.813,10.813,0,0,0,128,33.033c-4.269,0-7.734,2.946-7.734,7.34,0,4.726,3.938,7.325,8.333,7.325a9.075,9.075,0,0,0,7.088-3.15l1.827,2.032a11.49,11.49,0,0,1-9.12,3.985" transform="translate(-24.946 -6.412)" fill="#999"/>
        <path id="Trazado_16664" data-name="Trazado 16664" d="M150,50.222V30.76h15.988v2.867H152.835v5.08h6.616v2.812h-6.624v5.86h13.649v2.843Z" transform="translate(-31.86 -6.533)" fill="#999"/>
        <path id="Trazado_16665" data-name="Trazado 16665" d="M178.98,64.45a3.087,3.087,0,1,1-3.08,3.1V67.53a3.087,3.087,0,0,1,3.08-3.08m0,5.718a2.638,2.638,0,1,0-2.631-2.646v.008a2.63,2.63,0,0,0,2.623,2.638h.008m-.638-.874h-.449V65.742h1.363c.788,0,1.118.354,1.118.992a.953.953,0,0,1-.89,1.008l1.055,1.575h-.5l-1.055-1.575h-.638Zm0-1.953h.567c.488,0,1.024,0,1.024-.606,0-.457-.417-.591-.788-.591h-.788Z" transform="translate(-37.361 -13.689)" fill="#999"/>
    </g>
</svg>
